<svg width="189" height="57" viewBox="0 0 189 57" fill="none" xmlns="http://www.w3.org/2000/svg">
<path d="M34.3389 35.8533L20.4394 34.1583L22.1309 20.2587L36.0305 21.9503L34.3389 35.8533Z" fill="black"/>
<path d="M6.26876 -0.00390625L0.175049 50.0221L50.2011 56.1158L56.2948 6.09323L6.26876 -0.00390625ZM42.9305 46.8288L9.46315 42.7526L13.5393 9.28522L47.0067 13.3614L42.9305 46.8288Z" fill="black"/>
<path d="M66.4253 6.20905H70.7446V23.4863H88.0218V27.7472H66.4253V6.20905Z" fill="#070707"/>
<path d="M95.9892 6.20905H108.947V10.5284H95.9892V6.20905ZM91.6699 10.5284H95.9892V23.4863H91.6699V10.5284ZM108.947 10.5284H113.266V23.4863H108.947V10.5284ZM95.9892 23.4863H108.947V27.7472H95.9892V23.4863Z" fill="#070707"/>
<path d="M116.914 6.20905H134.192V10.5284H121.234V14.8477H134.192V19.167H121.234V27.7472H116.914V6.20905ZM134.192 10.5284H138.511V14.8477H134.192V10.5284ZM134.192 19.167H138.511V27.7472H134.192V19.167Z" fill="#070707"/>
<path d="M142.159 6.20905H163.755V10.5284H146.478V14.8477H159.436V19.167H146.478V23.4863H163.755V27.7472H142.159V6.20905Z" fill="#070707"/>
<path d="M167.404 6.20905H171.723V10.5284H176.042V14.8477H171.723V27.7472H167.404V6.20905ZM184.681 6.20905H189V27.7472H184.681V14.8477H180.361V10.5284H184.681V6.20905ZM176.042 14.8477H180.361V19.167H176.042V14.8477Z" fill="#070707"/>
<path d="M66.4253 32.7733H88.0218V37.0926H79.3832V50.0505H88.0218V54.3114H66.4253V50.0505H75.0639V37.0926H66.4253V32.7733Z" fill="#070707"/>
<path d="M91.6699 32.7733H108.947V37.0926H95.9892V41.4119H108.947V45.7312H95.9892V54.3114H91.6699V32.7733ZM108.947 37.0926H113.266V41.4119H108.947V37.0926Z" fill="#070707"/>
<path d="M121.234 32.7733H138.511V37.0926H121.234V32.7733ZM116.914 37.0926H121.234V41.4119H116.914V37.0926ZM121.234 41.4119H134.192V45.7312H121.234V41.4119ZM134.192 45.7312H138.511V50.0505H134.192V45.7312ZM116.914 50.0505H134.192V54.3114H116.914V50.0505Z" fill="#070707"/>
<path d="M142.159 32.7733H146.478V50.0505H142.159V32.7733ZM159.436 32.7733H163.755V50.0505H159.436V32.7733ZM146.478 50.0505H159.436V54.3114H146.478V50.0505Z" fill="#070707"/>
<path d="M167.404 32.7733H171.723V37.0926H176.042V41.4119H171.723V54.3114H167.404V32.7733ZM184.681 32.7733H189V54.3114H184.681V41.4119H180.361V37.0926H184.681V32.7733ZM176.042 41.4119H180.361V45.7312H176.042V41.4119Z" fill="#070707"/>
<path d="M36.0305 21.9503L34.3389 35.8533L20.4394 34.1583L22.1309 20.2587L36.0305 21.9503Z" fill="white"/>
<path d="M36.0305 21.9503L34.3389 35.8533L20.4394 34.1583L22.1309 20.2587L36.0305 21.9503Z" fill="black"/>
</svg>
